<?xml version="1.0" encoding="UTF-8"?>
<svg id="a" data-name="Ebene 1" xmlns="http://www.w3.org/2000/svg" viewBox="0 0 256 89">
  <rect x=".5" y=".5" width="255" height="88" rx="12" ry="12" fill="#fbfbfb" stroke="#fbfbfb" stroke-miterlimit="10"/>
  <g>
    <path d="m57.22,33.51h8.16c1.84,0,3.24.14,4.21.42,1.3.38,2.41,1.06,3.33,2.04.93.98,1.63,2.17,2.11,3.58.48,1.41.72,3.16.72,5.23,0,1.82-.23,3.39-.68,4.71-.55,1.61-1.34,2.91-2.37,3.91-.77.75-1.82,1.34-3.14,1.77-.99.31-2.3.47-3.95.47h-8.4v-22.11Zm4.47,3.74v14.65h3.33c1.25,0,2.15-.07,2.7-.21.72-.18,1.33-.49,1.8-.92.48-.43.87-1.14,1.17-2.13.3-.99.45-2.34.45-4.05s-.15-3.02-.45-3.94c-.3-.91-.72-1.63-1.27-2.14s-1.23-.86-2.07-1.04c-.62-.14-1.85-.21-3.67-.21h-2.01Z" fill="#1d1d1b" stroke-width="0"/>
    <path d="m79.56,55.63v-22.11h9.4c2.36,0,4.08.2,5.15.6,1.07.4,1.93,1.1,2.57,2.12.64,1.02.97,2.18.97,3.48,0,1.66-.49,3.03-1.46,4.11-.98,1.08-2.43,1.76-4.37,2.04.97.56,1.76,1.18,2.39,1.85.63.67,1.48,1.87,2.54,3.59l2.7,4.31h-5.34l-3.23-4.81c-1.15-1.72-1.93-2.8-2.35-3.25s-.87-.75-1.34-.92c-.47-.17-1.22-.25-2.25-.25h-.91v9.23h-4.47Zm4.47-12.76h3.3c2.14,0,3.48-.09,4.01-.27.53-.18.95-.49,1.25-.94.3-.44.45-1,.45-1.66,0-.74-.2-1.35-.6-1.8-.4-.46-.96-.75-1.68-.87-.36-.05-1.45-.08-3.26-.08h-3.48v5.61Z" fill="#1d1d1b" stroke-width="0"/>
    <path d="m121.8,55.63h-4.86l-1.93-5.02h-8.84l-1.83,5.02h-4.74l8.61-22.11h4.72l8.86,22.11Zm-8.22-8.75l-3.05-8.21-2.99,8.21h6.03Z" fill="#1d1d1b" stroke-width="0"/>
    <path d="m134.46,47.5v-3.73h9.62v8.81c-.93.91-2.29,1.7-4.06,2.39-1.78.69-3.57,1.03-5.39,1.03-2.31,0-4.33-.49-6.05-1.46-1.72-.97-3.01-2.36-3.88-4.16-.87-1.8-1.3-3.77-1.3-5.89,0-2.3.48-4.35,1.45-6.14.97-1.79,2.38-3.16,4.24-4.12,1.42-.73,3.18-1.1,5.29-1.1,2.75,0,4.89.58,6.43,1.73,1.54,1.15,2.54,2.74,2.98,4.77l-4.44.83c-.31-1.09-.9-1.94-1.76-2.57-.86-.63-1.93-.94-3.22-.94-1.95,0-3.5.62-4.65,1.86-1.15,1.24-1.73,3.07-1.73,5.51,0,2.62.58,4.59,1.75,5.91,1.17,1.31,2.69,1.97,4.59,1.97.93,0,1.87-.18,2.81-.55.94-.37,1.75-.81,2.42-1.33v-2.81h-5.11Z" fill="#1d1d1b" stroke-width="0"/>
    <path d="m156.72,55.63v-22.11h6.68l4.01,15.08,3.97-15.08h6.7v22.11h-4.15v-17.41l-4.39,17.41h-4.3l-4.37-17.41v17.41h-4.15Z" fill="#1d1d1b" stroke-width="0"/>
    <path d="m182.52,55.63v-22.11h16.4v3.74h-11.93v4.9h11.1v3.73h-11.1v6.02h12.36v3.73h-16.82Z" fill="#1d1d1b" stroke-width="0"/>
  </g>
</svg>